<svg width="151" height="27" viewBox="0 0 151 27" fill="none" xmlns="http://www.w3.org/2000/svg">
<path d="M1.064 21.656C1.048 21.48 1.04 21.288 1.04 21.08C1.04 20.872 1.04 20.632 1.04 20.36C1.04 19.672 1.056 18.856 1.088 17.912C1.12 16.952 1.168 15.936 1.232 14.864C1.296 13.776 1.36 12.688 1.424 11.6C1.488 10.496 1.552 9.44 1.616 8.432C1.696 7.424 1.768 6.52 1.832 5.72C1.48 5.832 1.168 5.936 0.896 6.032L0.272 2C2.08 1.488 3.76 1.104 5.312 0.847999C6.88 0.592 8.296 0.464 9.56 0.464C12.136 0.464 14.104 0.952 15.464 1.928C16.824 2.904 17.504 4.32 17.504 6.176C17.504 7.232 17.272 8.12 16.808 8.84C16.344 9.544 15.688 10.128 14.84 10.592C16.92 11.648 17.96 13.368 17.96 15.752C17.96 16.808 17.76 17.696 17.36 18.416C16.976 19.12 16.48 19.688 15.872 20.12C15.264 20.552 14.616 20.872 13.928 21.08C13.256 21.304 12.616 21.448 12.008 21.512C11.416 21.592 10.952 21.632 10.616 21.632C9.784 21.632 8.896 21.552 7.952 21.392C7.008 21.232 6.088 20.992 5.192 20.672C5.192 20.992 5.192 21.296 5.192 21.584L1.064 21.656ZM9.656 4.472C9.08 4.472 8.472 4.504 7.832 4.568C7.208 4.616 6.584 4.696 5.96 4.808C5.864 5.976 5.768 7.336 5.672 8.888C5.88 8.904 6.088 8.912 6.296 8.912C6.52 8.912 6.744 8.912 6.968 8.912C11.192 8.912 13.304 8.048 13.304 6.32C13.304 5.744 12.976 5.296 12.32 4.976C11.68 4.64 10.792 4.472 9.656 4.472ZM7.52 12.704C7.184 12.704 6.84 12.704 6.488 12.704C6.152 12.704 5.808 12.712 5.456 12.728C5.424 13.432 5.392 14.136 5.36 14.84C5.344 15.544 5.32 16.24 5.288 16.928C6.184 17.2 7.064 17.4 7.928 17.528C8.792 17.64 9.536 17.696 10.16 17.696C11.488 17.696 12.44 17.536 13.016 17.216C13.592 16.88 13.88 16.336 13.88 15.584C13.88 14.656 13.328 13.944 12.224 13.448C11.136 12.952 9.568 12.704 7.52 12.704ZM30.2722 21.608C28.7682 21.608 27.4002 21.328 26.1682 20.768C24.9362 20.224 23.8722 19.464 22.9762 18.488C22.0802 17.512 21.3922 16.4 20.9122 15.152C20.4322 13.904 20.1922 12.584 20.1922 11.192C20.1922 9.912 20.3842 8.656 20.7682 7.424C21.1522 6.176 21.7362 5.048 22.5202 4.04C23.3042 3.016 24.2962 2.2 25.4962 1.592C26.7122 0.983999 28.1442 0.679998 29.7922 0.679998C31.5042 0.679998 32.9922 0.975999 34.2562 1.568C35.5202 2.144 36.5602 2.92 37.3762 3.896C38.1922 4.872 38.8002 5.976 39.2002 7.208C39.6002 8.44 39.8002 9.704 39.8002 11C39.8002 12.552 39.5682 13.976 39.1042 15.272C38.6402 16.568 37.9842 17.696 37.1362 18.656C36.2882 19.6 35.2802 20.328 34.1122 20.84C32.9442 21.352 31.6642 21.608 30.2722 21.608ZM30.2722 17.6C31.2322 17.6 32.1202 17.368 32.9362 16.904C33.7522 16.424 34.4082 15.68 34.9042 14.672C35.4002 13.664 35.6482 12.352 35.6482 10.736C35.6482 9.344 35.3762 8.2 34.8322 7.304C34.2882 6.408 33.5842 5.744 32.7202 5.312C31.8562 4.88 30.9522 4.664 30.0082 4.664C28.9362 4.664 28.0322 4.856 27.2962 5.24C26.5602 5.624 25.9682 6.144 25.5202 6.8C25.0722 7.44 24.7522 8.16 24.5602 8.96C24.3682 9.76 24.2722 10.584 24.2722 11.432C24.2722 12.264 24.4322 13.056 24.7522 13.808C25.0722 14.544 25.5042 15.2 26.0482 15.776C26.6082 16.336 27.2482 16.784 27.9682 17.12C28.6882 17.44 29.4562 17.6 30.2722 17.6ZM52.28 21.608C50.776 21.608 49.408 21.328 48.176 20.768C46.944 20.224 45.88 19.464 44.984 18.488C44.088 17.512 43.4 16.4 42.92 15.152C42.44 13.904 42.2 12.584 42.2 11.192C42.2 9.912 42.392 8.656 42.776 7.424C43.16 6.176 43.744 5.048 44.528 4.04C45.312 3.016 46.304 2.2 47.504 1.592C48.72 0.983999 50.152 0.679998 51.8 0.679998C53.512 0.679998 55 0.975999 56.264 1.568C57.528 2.144 58.568 2.92 59.384 3.896C60.2 4.872 60.808 5.976 61.208 7.208C61.608 8.44 61.808 9.704 61.808 11C61.808 12.552 61.576 13.976 61.112 15.272C60.648 16.568 59.992 17.696 59.144 18.656C58.296 19.6 57.288 20.328 56.12 20.84C54.952 21.352 53.672 21.608 52.28 21.608ZM52.28 17.6C53.24 17.6 54.128 17.368 54.944 16.904C55.76 16.424 56.416 15.68 56.912 14.672C57.408 13.664 57.656 12.352 57.656 10.736C57.656 9.344 57.384 8.2 56.84 7.304C56.296 6.408 55.592 5.744 54.728 5.312C53.864 4.88 52.96 4.664 52.016 4.664C50.944 4.664 50.04 4.856 49.304 5.24C48.568 5.624 47.976 6.144 47.528 6.8C47.08 7.44 46.76 8.16 46.568 8.96C46.376 9.76 46.28 10.584 46.28 11.432C46.28 12.264 46.44 13.056 46.76 13.808C47.08 14.544 47.512 15.2 48.056 15.776C48.616 16.336 49.256 16.784 49.976 17.12C50.696 17.44 51.464 17.6 52.28 17.6ZM64.5678 21.704C64.5198 20.312 64.4958 18.744 64.4958 17C64.4958 15.368 64.5198 13.64 64.5678 11.816C64.6158 9.992 64.6958 8.136 64.8078 6.248C64.9198 4.36 65.0558 2.52 65.2158 0.727999L69.3918 0.8C69.2478 1.92 69.1198 3.064 69.0078 4.232C68.9118 5.384 68.8318 6.544 68.7678 7.712C69.4398 7.248 70.2478 6.712 71.1918 6.104C72.1518 5.48 73.1758 4.856 74.2638 4.232C75.3518 3.592 76.4398 2.984 77.5278 2.408C78.6318 1.832 79.6638 1.344 80.6238 0.943999L81.7998 5.024C80.8238 5.424 79.8398 5.864 78.8478 6.344C77.8718 6.824 76.9358 7.304 76.0398 7.784C75.1598 8.248 74.3758 8.696 73.6878 9.128C72.9998 9.544 72.4558 9.912 72.0558 10.232C71.6558 10.536 71.4558 10.76 71.4558 10.904C71.4558 11.112 71.7678 11.464 72.3918 11.96C73.0158 12.456 73.8638 13.04 74.9358 13.712C76.0078 14.384 77.2238 15.088 78.5838 15.824C79.9598 16.56 81.3838 17.28 82.8558 17.984L80.6238 21.68C78.7998 20.736 77.1198 19.792 75.5838 18.848C74.0638 17.888 72.7038 16.984 71.5038 16.136C70.3198 15.288 69.3358 14.56 68.5518 13.952C68.5518 14.544 68.5518 15.136 68.5518 15.728C68.5518 16.8 68.5598 17.84 68.5758 18.848C68.6078 19.84 68.6398 20.768 68.6718 21.632L64.5678 21.704ZM93.5761 21.92C92.2321 21.92 90.9841 21.72 89.8321 21.32C88.6801 20.92 87.6401 20.392 86.7121 19.736C85.8001 19.064 85.0001 18.344 84.3121 17.576L86.7121 13.76C86.9201 14.304 87.2641 14.824 87.7441 15.32C88.2401 15.816 88.8161 16.256 89.4721 16.64C90.1281 17.024 90.8161 17.328 91.5361 17.552C92.2721 17.776 92.9921 17.888 93.6961 17.888C94.7521 17.888 95.5921 17.72 96.2161 17.384C96.8401 17.032 97.1521 16.568 97.1521 15.992C97.1521 15.544 97.0081 15.176 96.7201 14.888C96.4481 14.584 96.1281 14.344 95.7601 14.168C95.4081 13.976 95.1041 13.808 94.8481 13.664C94.6561 13.568 94.3041 13.424 93.7921 13.232C93.2961 13.024 92.7361 12.8 92.1121 12.56C91.4881 12.32 90.8961 12.096 90.3361 11.888C89.7761 11.664 89.3361 11.48 89.0161 11.336C86.6321 10.264 85.4401 8.608 85.4401 6.368C85.4401 5.648 85.5761 4.944 85.8481 4.256C86.1361 3.552 86.5681 2.912 87.1441 2.336C87.7201 1.76 88.4561 1.304 89.3521 0.967999C90.2481 0.631999 91.3201 0.464 92.5681 0.464C93.9281 0.464 95.1361 0.616 96.1921 0.92C97.2481 1.208 98.1761 1.576 98.9761 2.024C99.7921 2.472 100.488 2.944 101.064 3.44L98.8561 7.136C97.0801 5.376 95.0721 4.496 92.8321 4.496C91.8881 4.496 91.1681 4.6 90.6721 4.808C90.1921 5 89.8641 5.224 89.6881 5.48C89.5281 5.72 89.4481 5.92 89.4481 6.08C89.4481 6.352 89.5441 6.624 89.7361 6.896C89.9441 7.168 90.4001 7.456 91.1041 7.76C91.3921 7.888 91.7761 8.048 92.2561 8.24C92.7521 8.416 93.2961 8.616 93.8881 8.84C94.4961 9.064 95.0881 9.304 95.6641 9.56C96.2561 9.8 96.7921 10.048 97.2721 10.304C97.8481 10.624 98.4401 11.016 99.0481 11.48C99.6561 11.944 100.168 12.52 100.584 13.208C101.016 13.88 101.232 14.704 101.232 15.68C101.232 16.272 101.12 16.928 100.896 17.648C100.672 18.352 100.28 19.032 99.7201 19.688C99.1601 20.344 98.3841 20.88 97.3921 21.296C96.4001 21.712 95.1281 21.92 93.5761 21.92ZM103.466 21.656C103.466 20.68 103.466 19.432 103.466 17.912C103.482 16.376 103.498 14.672 103.514 12.8C103.546 10.928 103.586 8.96 103.634 6.896C103.698 4.832 103.77 2.768 103.85 0.704L107.93 0.679998C107.866 1.592 107.802 2.704 107.738 4.016C107.674 5.328 107.618 6.736 107.57 8.24C108.674 7.216 109.938 6.704 111.362 6.704C112.338 6.704 113.146 6.88 113.786 7.232C114.442 7.584 114.97 8.048 115.37 8.624C115.77 9.184 116.074 9.8 116.282 10.472C116.49 11.144 116.634 11.808 116.714 12.464C116.794 13.104 116.834 13.672 116.834 14.168C116.834 15.224 116.826 16.272 116.81 17.312C116.794 18.352 116.778 19.264 116.762 20.048C116.762 20.832 116.762 21.384 116.762 21.704L112.562 21.728C112.626 21.104 112.666 20.384 112.682 19.568C112.714 18.752 112.73 17.912 112.73 17.048C112.746 16.168 112.754 15.336 112.754 14.552C112.754 11.96 112.146 10.664 110.93 10.664C110.562 10.664 110.154 10.76 109.706 10.952C109.258 11.144 108.826 11.448 108.41 11.864C108.01 12.28 107.69 12.832 107.45 13.52C107.434 14.576 107.426 15.6 107.426 16.592C107.426 17.504 107.434 18.36 107.45 19.16C107.482 19.944 107.506 20.736 107.522 21.536L103.466 21.656ZM126.319 21.968C125.039 21.968 123.919 21.76 122.959 21.344C122.015 20.928 121.231 20.36 120.607 19.64C119.983 18.904 119.519 18.064 119.215 17.12C118.911 16.176 118.759 15.184 118.759 14.144C118.759 13.088 118.943 12.112 119.311 11.216C119.695 10.304 120.215 9.512 120.871 8.84C121.543 8.168 122.327 7.648 123.223 7.28C124.119 6.896 125.095 6.704 126.151 6.704C127.255 6.704 128.279 6.896 129.223 7.28C130.167 7.664 130.991 8.2 131.695 8.888C132.399 9.576 132.943 10.384 133.327 11.312C133.727 12.24 133.927 13.248 133.927 14.336C133.927 16.752 133.263 18.632 131.935 19.976C130.607 21.304 128.735 21.968 126.319 21.968ZM126.295 18.08C127.463 18.08 128.351 17.752 128.959 17.096C129.583 16.44 129.895 15.496 129.895 14.264C129.895 13.16 129.559 12.272 128.887 11.6C128.215 10.928 127.335 10.592 126.247 10.592C125.591 10.592 124.991 10.768 124.447 11.12C123.903 11.456 123.463 11.912 123.127 12.488C122.807 13.048 122.647 13.672 122.647 14.36C122.647 14.968 122.767 15.56 123.007 16.136C123.263 16.712 123.663 17.184 124.207 17.552C124.751 17.904 125.447 18.08 126.295 18.08ZM136 26.816C135.888 25.536 135.808 24.248 135.76 22.952C135.712 21.656 135.688 20.16 135.688 18.464C135.688 16.4 135.72 14.344 135.784 12.296C135.848 10.248 135.944 8.376 136.072 6.68L140.2 6.8C140.152 7.168 140.112 7.56 140.08 7.976C140.656 7.592 141.272 7.312 141.928 7.136C142.6 6.96 143.28 6.872 143.968 6.872C144.848 6.872 145.704 7.016 146.536 7.304C147.368 7.576 148.12 8.016 148.792 8.624C149.464 9.216 149.992 9.984 150.376 10.928C150.776 11.872 150.976 13.008 150.976 14.336C150.976 15.648 150.776 16.792 150.376 17.768C149.976 18.744 149.44 19.544 148.768 20.168C148.096 20.808 147.344 21.28 146.512 21.584C145.68 21.904 144.824 22.064 143.944 22.064C142.328 22.064 140.904 21.584 139.672 20.624C139.704 21.648 139.752 22.632 139.816 23.576C139.88 24.536 139.96 25.512 140.056 26.504L136 26.816ZM143.32 10.856C141.736 10.856 140.544 11.632 139.744 13.184C139.696 14.144 139.664 15.12 139.648 16.112C140.032 16.624 140.528 17.072 141.136 17.456C141.744 17.824 142.52 18.008 143.464 18.008C145.72 18.008 146.848 16.72 146.848 14.144C146.848 13.456 146.72 12.896 146.464 12.464C146.208 12.032 145.888 11.704 145.504 11.48C145.12 11.24 144.728 11.08 144.328 11C143.928 10.904 143.592 10.856 143.32 10.856Z" fill="white"/>
</svg>
